<svg id="Layer_1" data-name="Layer 1" xmlns="http://www.w3.org/2000/svg" viewBox="0 0 866 733"><defs><style>.cls-1{fill:#00abe6;}.cls-1,.cls-2,.cls-3,.cls-9{stroke:#000;stroke-miterlimit:10;}.cls-1,.cls-2{stroke-width:3px;}.cls-3{fill:#0076c3;stroke-width:4px;}.cls-4,.cls-9{fill:#fff;}.cls-5{font-size:37px;font-family:MyriadPro-Regular, Myriad Pro;}.cls-6{letter-spacing:-0.01em;}.cls-7{letter-spacing:0em;}.cls-8{letter-spacing:0em;}.cls-9{stroke-width:6px;}</style></defs><title>proxy</title><rect class="cls-1" x="354" y="84" width="149" height="22"/><rect class="cls-1" x="354" y="187" width="149" height="22"/><path class="cls-2" d="M507.74,896.5s-63,25-74,32,0,16,0,16h73.5l.26-.46Z" transform="translate(-407 -213)"/><path class="cls-2" d="M572.23,928.5c-12.22-7-62.73-37-62.73-37l-19,12v41h81.73S584.45,935.5,572.23,928.5Z" transform="translate(-407 -213)"/><rect class="cls-3" x="283" y="2" width="285" height="86"/><circle class="cls-4" cx="324" cy="43" r="11"/><path d="M731,247a9,9,0,1,1-9,9,9,9,0,0,1,9-9m0-4a13,13,0,1,0,13,13,13,13,0,0,0-13-13Z" transform="translate(-407 -213)"/><circle class="cls-4" cx="367" cy="43" r="11"/><path d="M774,247a9,9,0,1,1-9,9,9,9,0,0,1,9-9m0-4a13,13,0,1,0,13,13,13,13,0,0,0-13-13Z" transform="translate(-407 -213)"/><circle class="cls-4" cx="411" cy="43" r="11"/><path d="M818,247a9,9,0,1,1-9,9,9,9,0,0,1,9-9m0-4a13,13,0,1,0,13,13,13,13,0,0,0-13-13Z" transform="translate(-407 -213)"/><rect class="cls-4" x="462" y="27" width="9" height="29"/><path d="M876,242v25h-5V242h5m4-4H867v33h13V238Z" transform="translate(-407 -213)"/><rect class="cls-4" x="499" y="27" width="9" height="29"/><path d="M913,242v25h-5V242h5m4-4H904v33h13V238Z" transform="translate(-407 -213)"/><rect class="cls-4" x="534" y="27" width="9" height="29"/><path d="M948,242v25h-5V242h5m4-4H939v33h13V238Z" transform="translate(-407 -213)"/><rect class="cls-3" x="283" y="102" width="285" height="86"/><circle class="cls-4" cx="324" cy="143" r="11"/><path d="M731,347a9,9,0,1,1-9,9,9,9,0,0,1,9-9m0-4a13,13,0,1,0,13,13,13,13,0,0,0-13-13Z" transform="translate(-407 -213)"/><circle class="cls-4" cx="367" cy="143" r="11"/><path d="M774,347a9,9,0,1,1-9,9,9,9,0,0,1,9-9m0-4a13,13,0,1,0,13,13,13,13,0,0,0-13-13Z" transform="translate(-407 -213)"/><circle class="cls-4" cx="411" cy="143" r="11"/><path d="M818,347a9,9,0,1,1-9,9,9,9,0,0,1,9-9m0-4a13,13,0,1,0,13,13,13,13,0,0,0-13-13Z" transform="translate(-407 -213)"/><rect class="cls-4" x="462" y="127" width="9" height="29"/><path d="M876,342v25h-5V342h5m4-4H867v33h13V338Z" transform="translate(-407 -213)"/><rect class="cls-4" x="499" y="127" width="9" height="29"/><path d="M913,342v25h-5V342h5m4-4H904v33h13V338Z" transform="translate(-407 -213)"/><rect class="cls-4" x="534" y="127" width="9" height="29"/><path d="M948,342v25h-5V342h5m4-4H939v33h13V338Z" transform="translate(-407 -213)"/><rect class="cls-3" x="283" y="206" width="285" height="86"/><circle class="cls-4" cx="324" cy="247" r="11"/><path d="M731,451a9,9,0,1,1-9,9,9,9,0,0,1,9-9m0-4a13,13,0,1,0,13,13,13,13,0,0,0-13-13Z" transform="translate(-407 -213)"/><circle class="cls-4" cx="367" cy="247" r="11"/><path d="M774,451a9,9,0,1,1-9,9,9,9,0,0,1,9-9m0-4a13,13,0,1,0,13,13,13,13,0,0,0-13-13Z" transform="translate(-407 -213)"/><circle class="cls-4" cx="411" cy="247" r="11"/><path d="M818,451a9,9,0,1,1-9,9,9,9,0,0,1,9-9m0-4a13,13,0,1,0,13,13,13,13,0,0,0-13-13Z" transform="translate(-407 -213)"/><rect class="cls-4" x="462" y="231" width="9" height="29"/><path d="M876,446v25h-5V446h5m4-4H867v33h13V442Z" transform="translate(-407 -213)"/><rect class="cls-4" x="499" y="231" width="9" height="29"/><path d="M913,446v25h-5V446h5m4-4H904v33h13V442Z" transform="translate(-407 -213)"/><rect class="cls-4" x="534" y="231" width="9" height="29"/><path d="M948,446v25h-5V446h5m4-4H939v33h13V442Z" transform="translate(-407 -213)"/><rect class="cls-4" x="12.5" y="507.5" width="168" height="168" rx="38.32"/><path d="M549.18,733A25.85,25.85,0,0,1,575,758.82v91.36A25.85,25.85,0,0,1,549.18,876H457.82A25.85,25.85,0,0,1,432,850.18V758.82A25.85,25.85,0,0,1,457.82,733h91.36m0-25H457.82A50.82,50.82,0,0,0,407,758.82v91.36A50.82,50.82,0,0,0,457.82,901h91.36A50.82,50.82,0,0,0,600,850.18V758.82A50.82,50.82,0,0,0,549.18,708Z" transform="translate(-407 -213)"/><text class="cls-5" transform="translate(41.41 591.53)">/sea<tspan class="cls-6" x="63.71" y="0">r</tspan><tspan class="cls-7" x="75.44" y="0">ch</tspan></text><path class="cls-2" d="M835.74,896.5s-63,25-74,32,0,16,0,16h73.5l.26-.46Z" transform="translate(-407 -213)"/><path class="cls-2" d="M900.23,928.5c-12.22-7-62.73-37-62.73-37l-19,12v41h81.73S912.45,935.5,900.23,928.5Z" transform="translate(-407 -213)"/><rect class="cls-4" x="340.5" y="507.5" width="168" height="168" rx="38.32"/><path d="M877.18,733A25.85,25.85,0,0,1,903,758.82v91.36A25.85,25.85,0,0,1,877.18,876H785.82A25.85,25.85,0,0,1,760,850.18V758.82A25.85,25.85,0,0,1,785.82,733h91.36m0-25H785.82A50.82,50.82,0,0,0,735,758.82v91.36A50.82,50.82,0,0,0,785.82,901h91.36A50.82,50.82,0,0,0,928,850.18V758.82A50.82,50.82,0,0,0,877.18,708Z" transform="translate(-407 -213)"/><text class="cls-5" transform="translate(369.41 591.53)">/health</text><path class="cls-2" d="M1180.74,896.5s-63,25-74,32,0,16,0,16h73.5l.26-.46Z" transform="translate(-407 -213)"/><path class="cls-2" d="M1245.23,928.5c-12.22-7-62.73-37-62.73-37l-19,12v41h81.73S1257.45,935.5,1245.23,928.5Z" transform="translate(-407 -213)"/><rect class="cls-4" x="685.5" y="507.5" width="168" height="168" rx="38.32"/><path d="M1222.18,733A25.85,25.85,0,0,1,1248,758.82v91.36A25.85,25.85,0,0,1,1222.18,876h-91.36A25.85,25.85,0,0,1,1105,850.18V758.82A25.85,25.85,0,0,1,1130.82,733h91.36m0-25h-91.36A50.82,50.82,0,0,0,1080,758.82v91.36A50.82,50.82,0,0,0,1130.82,901h91.36A50.82,50.82,0,0,0,1273,850.18V758.82A50.82,50.82,0,0,0,1222.18,708Z" transform="translate(-407 -213)"/><text class="cls-5" transform="translate(725.41 591.53)">/st<tspan class="cls-8" x="39.59" y="0">a</tspan><tspan class="cls-7" x="57.27" y="0">ts</tspan></text><circle class="cls-3" cx="425" cy="383" r="28"/><polyline class="cls-9" points="97 495 97 383 397 383"/><line class="cls-9" x1="425" y1="411" x2="425" y2="505"/><polyline class="cls-9" points="773.86 495 774 383 453 383"/><line class="cls-9" x1="425" y1="355" x2="424" y2="289"/></svg>